; NON-PLATED HOLES START AT T1
; THROUGH (PLATED) HOLES START AT T100
M48
INCH
T1C0.125984
T100C0.038000
T101C0.038194
T102C0.037639
T103C0.037500
T104C0.035000
%
T1
X001181Y006954
X008181Y006954
T100
X002181Y012954
X006181Y000954
X008181Y000954
X003181Y012954
X007181Y000954
T101
X006189Y004950
X004189Y007950
X005189Y004950
X004189Y004950
X005189Y007950
T102
X006189Y007950
T103
X002181Y009954
X008040Y009954
T104
X008181Y012954
X003181Y001954
X002181Y001954
X004181Y012954
X007181Y001954
X003181Y002954
X006181Y011954
X002181Y002954
X002181Y011954
X007181Y002954
X002181Y000954
T00
M30
