G04 MADE WITH FRITZING*
G04 WWW.FRITZING.ORG*
G04 DOUBLE SIDED*
G04 HOLES PLATED*
G04 CONTOUR ON CENTER OF CONTOUR VECTOR*
%ASAXBY*%
%FSLAX23Y23*%
%MOIN*%
%OFA0B0*%
%SFA1.0B1.0*%
%ADD10C,0.075000*%
%ADD11C,0.072361*%
%ADD12C,0.072917*%
%ADD13C,0.078000*%
%ADD14C,0.087500*%
%ADD15R,0.072361X0.072361*%
%ADD16C,0.016000*%
%ADD17C,0.024000*%
%LNCOPPER0*%
G90*
G70*
G54D10*
X104Y1257D03*
X715Y1112D03*
X455Y286D03*
X718Y295D03*
X318Y295D03*
X318Y195D03*
X718Y195D03*
G54D11*
X619Y795D03*
G54D12*
X619Y495D03*
X519Y795D03*
X519Y495D03*
X419Y795D03*
X419Y495D03*
G54D10*
X218Y95D03*
X218Y195D03*
X218Y295D03*
G54D13*
X318Y1295D03*
X218Y1295D03*
X618Y95D03*
X718Y95D03*
X818Y95D03*
G54D10*
X218Y1195D03*
X618Y1195D03*
X418Y1295D03*
X818Y1295D03*
G54D14*
X804Y995D03*
X218Y995D03*
G54D15*
X619Y795D03*
G54D16*
X337Y1295D02*
X401Y1295D01*
D02*
X718Y114D02*
X718Y178D01*
D02*
X218Y1276D02*
X218Y1213D01*
D02*
X419Y96D02*
X236Y96D01*
D02*
X519Y196D02*
X419Y96D01*
D02*
X701Y196D02*
X519Y196D01*
D02*
X805Y1014D02*
X817Y1278D01*
D02*
X718Y396D02*
X718Y313D01*
D02*
X819Y395D02*
X718Y396D01*
D02*
X819Y96D02*
X819Y395D01*
D02*
X831Y109D02*
X819Y96D01*
D02*
X118Y195D02*
X201Y195D01*
D02*
X119Y195D02*
X118Y195D01*
D02*
X119Y496D02*
X119Y195D01*
D02*
X119Y495D02*
X119Y496D01*
D02*
X400Y495D02*
X119Y495D01*
D02*
X218Y1014D02*
X219Y1195D01*
D02*
X219Y1195D02*
X236Y1195D01*
D02*
X422Y1278D02*
X515Y814D01*
D02*
X301Y295D02*
X219Y295D01*
D02*
X219Y295D02*
X236Y294D01*
D02*
X718Y396D02*
X718Y313D01*
D02*
X518Y395D02*
X718Y396D01*
D02*
X519Y476D02*
X518Y395D01*
D02*
X618Y1178D02*
X619Y814D01*
G54D17*
D02*
X518Y495D02*
X519Y495D01*
G54D16*
D02*
X319Y195D02*
X236Y195D01*
D02*
X335Y191D02*
X319Y195D01*
G36*
X40Y1332D02*
X40Y922D01*
X202Y922D01*
X202Y924D01*
X196Y924D01*
X196Y926D01*
X190Y926D01*
X190Y928D01*
X186Y928D01*
X186Y930D01*
X182Y930D01*
X182Y932D01*
X178Y932D01*
X178Y934D01*
X176Y934D01*
X176Y936D01*
X174Y936D01*
X174Y938D01*
X170Y938D01*
X170Y940D01*
X168Y940D01*
X168Y942D01*
X166Y942D01*
X166Y944D01*
X164Y944D01*
X164Y946D01*
X162Y946D01*
X162Y948D01*
X160Y948D01*
X160Y952D01*
X158Y952D01*
X158Y954D01*
X156Y954D01*
X156Y958D01*
X154Y958D01*
X154Y960D01*
X152Y960D01*
X152Y964D01*
X150Y964D01*
X150Y970D01*
X148Y970D01*
X148Y976D01*
X146Y976D01*
X146Y986D01*
X144Y986D01*
X144Y1004D01*
X146Y1004D01*
X146Y1014D01*
X148Y1014D01*
X148Y1020D01*
X150Y1020D01*
X150Y1026D01*
X152Y1026D01*
X152Y1030D01*
X154Y1030D01*
X154Y1032D01*
X156Y1032D01*
X156Y1036D01*
X158Y1036D01*
X158Y1038D01*
X160Y1038D01*
X160Y1042D01*
X162Y1042D01*
X162Y1044D01*
X164Y1044D01*
X164Y1046D01*
X166Y1046D01*
X166Y1048D01*
X168Y1048D01*
X168Y1050D01*
X170Y1050D01*
X170Y1052D01*
X172Y1052D01*
X172Y1054D01*
X176Y1054D01*
X176Y1056D01*
X178Y1056D01*
X178Y1058D01*
X180Y1058D01*
X180Y1140D01*
X178Y1140D01*
X178Y1142D01*
X176Y1142D01*
X176Y1144D01*
X174Y1144D01*
X174Y1146D01*
X170Y1146D01*
X170Y1148D01*
X168Y1148D01*
X168Y1152D01*
X166Y1152D01*
X166Y1154D01*
X164Y1154D01*
X164Y1156D01*
X162Y1156D01*
X162Y1160D01*
X160Y1160D01*
X160Y1162D01*
X158Y1162D01*
X158Y1166D01*
X156Y1166D01*
X156Y1172D01*
X154Y1172D01*
X154Y1178D01*
X152Y1178D01*
X152Y1190D01*
X150Y1190D01*
X150Y1200D01*
X152Y1200D01*
X152Y1212D01*
X154Y1212D01*
X154Y1218D01*
X156Y1218D01*
X156Y1224D01*
X158Y1224D01*
X158Y1228D01*
X160Y1228D01*
X160Y1230D01*
X162Y1230D01*
X162Y1234D01*
X164Y1234D01*
X164Y1254D01*
X162Y1254D01*
X162Y1256D01*
X160Y1256D01*
X160Y1260D01*
X158Y1260D01*
X158Y1264D01*
X156Y1264D01*
X156Y1268D01*
X154Y1268D01*
X154Y1272D01*
X152Y1272D01*
X152Y1280D01*
X150Y1280D01*
X150Y1310D01*
X152Y1310D01*
X152Y1332D01*
X40Y1332D01*
G37*
D02*
G36*
X358Y1240D02*
X358Y1238D01*
X356Y1238D01*
X356Y1236D01*
X352Y1236D01*
X352Y1234D01*
X348Y1234D01*
X348Y1232D01*
X344Y1232D01*
X344Y1230D01*
X338Y1230D01*
X338Y1228D01*
X328Y1228D01*
X328Y1226D01*
X394Y1226D01*
X394Y1228D01*
X392Y1228D01*
X392Y1234D01*
X388Y1234D01*
X388Y1236D01*
X384Y1236D01*
X384Y1238D01*
X380Y1238D01*
X380Y1240D01*
X358Y1240D01*
G37*
D02*
G36*
X282Y1228D02*
X282Y1226D01*
X308Y1226D01*
X308Y1228D01*
X282Y1228D01*
G37*
D02*
G36*
X282Y1226D02*
X282Y1224D01*
X394Y1224D01*
X394Y1226D01*
X282Y1226D01*
G37*
D02*
G36*
X282Y1226D02*
X282Y1224D01*
X394Y1224D01*
X394Y1226D01*
X282Y1226D01*
G37*
D02*
G36*
X282Y1224D02*
X282Y1214D01*
X284Y1214D01*
X284Y1204D01*
X286Y1204D01*
X286Y1186D01*
X284Y1186D01*
X284Y1176D01*
X282Y1176D01*
X282Y1170D01*
X280Y1170D01*
X280Y1166D01*
X278Y1166D01*
X278Y1162D01*
X276Y1162D01*
X276Y1160D01*
X274Y1160D01*
X274Y1156D01*
X272Y1156D01*
X272Y1154D01*
X270Y1154D01*
X270Y1150D01*
X268Y1150D01*
X268Y1148D01*
X266Y1148D01*
X266Y1146D01*
X264Y1146D01*
X264Y1144D01*
X260Y1144D01*
X260Y1142D01*
X258Y1142D01*
X258Y1140D01*
X256Y1140D01*
X256Y1058D01*
X258Y1058D01*
X258Y1056D01*
X260Y1056D01*
X260Y1054D01*
X264Y1054D01*
X264Y1052D01*
X266Y1052D01*
X266Y1050D01*
X268Y1050D01*
X268Y1048D01*
X270Y1048D01*
X270Y1046D01*
X272Y1046D01*
X272Y1044D01*
X274Y1044D01*
X274Y1042D01*
X276Y1042D01*
X276Y1040D01*
X278Y1040D01*
X278Y1036D01*
X280Y1036D01*
X280Y1034D01*
X282Y1034D01*
X282Y1030D01*
X284Y1030D01*
X284Y1026D01*
X286Y1026D01*
X286Y1022D01*
X288Y1022D01*
X288Y1016D01*
X290Y1016D01*
X290Y1006D01*
X292Y1006D01*
X292Y984D01*
X290Y984D01*
X290Y974D01*
X288Y974D01*
X288Y968D01*
X286Y968D01*
X286Y964D01*
X284Y964D01*
X284Y960D01*
X282Y960D01*
X282Y956D01*
X280Y956D01*
X280Y954D01*
X278Y954D01*
X278Y950D01*
X276Y950D01*
X276Y948D01*
X274Y948D01*
X274Y946D01*
X272Y946D01*
X272Y944D01*
X270Y944D01*
X270Y942D01*
X268Y942D01*
X268Y940D01*
X266Y940D01*
X266Y938D01*
X264Y938D01*
X264Y936D01*
X260Y936D01*
X260Y934D01*
X258Y934D01*
X258Y932D01*
X254Y932D01*
X254Y930D01*
X250Y930D01*
X250Y928D01*
X246Y928D01*
X246Y926D01*
X240Y926D01*
X240Y924D01*
X234Y924D01*
X234Y922D01*
X454Y922D01*
X454Y930D01*
X452Y930D01*
X452Y940D01*
X450Y940D01*
X450Y950D01*
X448Y950D01*
X448Y960D01*
X446Y960D01*
X446Y970D01*
X444Y970D01*
X444Y980D01*
X442Y980D01*
X442Y990D01*
X440Y990D01*
X440Y1000D01*
X438Y1000D01*
X438Y1010D01*
X436Y1010D01*
X436Y1020D01*
X434Y1020D01*
X434Y1028D01*
X432Y1028D01*
X432Y1038D01*
X430Y1038D01*
X430Y1048D01*
X428Y1048D01*
X428Y1058D01*
X426Y1058D01*
X426Y1068D01*
X424Y1068D01*
X424Y1078D01*
X422Y1078D01*
X422Y1088D01*
X420Y1088D01*
X420Y1098D01*
X418Y1098D01*
X418Y1108D01*
X416Y1108D01*
X416Y1118D01*
X414Y1118D01*
X414Y1128D01*
X412Y1128D01*
X412Y1138D01*
X410Y1138D01*
X410Y1148D01*
X408Y1148D01*
X408Y1158D01*
X406Y1158D01*
X406Y1168D01*
X404Y1168D01*
X404Y1178D01*
X402Y1178D01*
X402Y1188D01*
X400Y1188D01*
X400Y1198D01*
X398Y1198D01*
X398Y1208D01*
X396Y1208D01*
X396Y1218D01*
X394Y1218D01*
X394Y1224D01*
X282Y1224D01*
G37*
D02*
G36*
X40Y922D02*
X40Y920D01*
X454Y920D01*
X454Y922D01*
X40Y922D01*
G37*
D02*
G36*
X40Y922D02*
X40Y920D01*
X454Y920D01*
X454Y922D01*
X40Y922D01*
G37*
D02*
G36*
X40Y920D02*
X40Y862D01*
X422Y862D01*
X422Y860D01*
X436Y860D01*
X436Y858D01*
X442Y858D01*
X442Y856D01*
X446Y856D01*
X446Y854D01*
X468Y854D01*
X468Y860D01*
X466Y860D01*
X466Y870D01*
X464Y870D01*
X464Y880D01*
X462Y880D01*
X462Y890D01*
X460Y890D01*
X460Y900D01*
X458Y900D01*
X458Y910D01*
X456Y910D01*
X456Y920D01*
X40Y920D01*
G37*
D02*
G36*
X40Y862D02*
X40Y788D01*
X130Y788D01*
X130Y786D01*
X140Y786D01*
X140Y784D01*
X148Y784D01*
X148Y782D01*
X154Y782D01*
X154Y780D01*
X352Y780D01*
X352Y802D01*
X354Y802D01*
X354Y812D01*
X356Y812D01*
X356Y818D01*
X358Y818D01*
X358Y824D01*
X360Y824D01*
X360Y826D01*
X362Y826D01*
X362Y830D01*
X364Y830D01*
X364Y834D01*
X366Y834D01*
X366Y836D01*
X368Y836D01*
X368Y838D01*
X370Y838D01*
X370Y840D01*
X372Y840D01*
X372Y842D01*
X374Y842D01*
X374Y844D01*
X376Y844D01*
X376Y846D01*
X378Y846D01*
X378Y848D01*
X382Y848D01*
X382Y850D01*
X384Y850D01*
X384Y852D01*
X388Y852D01*
X388Y854D01*
X392Y854D01*
X392Y856D01*
X396Y856D01*
X396Y858D01*
X402Y858D01*
X402Y860D01*
X416Y860D01*
X416Y862D01*
X40Y862D01*
G37*
D02*
G36*
X40Y788D02*
X40Y780D01*
X82Y780D01*
X82Y782D01*
X88Y782D01*
X88Y784D01*
X96Y784D01*
X96Y786D01*
X106Y786D01*
X106Y788D01*
X40Y788D01*
G37*
D02*
G36*
X484Y1332D02*
X484Y1304D01*
X486Y1304D01*
X486Y1286D01*
X484Y1286D01*
X484Y1276D01*
X482Y1276D01*
X482Y1270D01*
X480Y1270D01*
X480Y1266D01*
X478Y1266D01*
X478Y1262D01*
X632Y1262D01*
X632Y1260D01*
X640Y1260D01*
X640Y1258D01*
X644Y1258D01*
X644Y1256D01*
X648Y1256D01*
X648Y1254D01*
X652Y1254D01*
X652Y1252D01*
X656Y1252D01*
X656Y1250D01*
X658Y1250D01*
X658Y1248D01*
X662Y1248D01*
X662Y1246D01*
X664Y1246D01*
X664Y1244D01*
X666Y1244D01*
X666Y1242D01*
X668Y1242D01*
X668Y1240D01*
X670Y1240D01*
X670Y1236D01*
X672Y1236D01*
X672Y1234D01*
X674Y1234D01*
X674Y1232D01*
X676Y1232D01*
X676Y1228D01*
X678Y1228D01*
X678Y1224D01*
X680Y1224D01*
X680Y1220D01*
X682Y1220D01*
X682Y1214D01*
X684Y1214D01*
X684Y1204D01*
X686Y1204D01*
X686Y1186D01*
X684Y1186D01*
X684Y1176D01*
X682Y1176D01*
X682Y1170D01*
X680Y1170D01*
X680Y1166D01*
X678Y1166D01*
X678Y1162D01*
X676Y1162D01*
X676Y1160D01*
X674Y1160D01*
X674Y1156D01*
X672Y1156D01*
X672Y1154D01*
X670Y1154D01*
X670Y1150D01*
X668Y1150D01*
X668Y1148D01*
X666Y1148D01*
X666Y1146D01*
X664Y1146D01*
X664Y1144D01*
X660Y1144D01*
X660Y1142D01*
X658Y1142D01*
X658Y1140D01*
X656Y1140D01*
X656Y922D01*
X788Y922D01*
X788Y924D01*
X782Y924D01*
X782Y926D01*
X776Y926D01*
X776Y928D01*
X772Y928D01*
X772Y930D01*
X768Y930D01*
X768Y932D01*
X764Y932D01*
X764Y934D01*
X762Y934D01*
X762Y936D01*
X758Y936D01*
X758Y938D01*
X756Y938D01*
X756Y940D01*
X754Y940D01*
X754Y942D01*
X752Y942D01*
X752Y944D01*
X750Y944D01*
X750Y946D01*
X748Y946D01*
X748Y948D01*
X746Y948D01*
X746Y952D01*
X744Y952D01*
X744Y954D01*
X742Y954D01*
X742Y958D01*
X740Y958D01*
X740Y960D01*
X738Y960D01*
X738Y964D01*
X736Y964D01*
X736Y970D01*
X734Y970D01*
X734Y976D01*
X732Y976D01*
X732Y986D01*
X730Y986D01*
X730Y1004D01*
X732Y1004D01*
X732Y1014D01*
X734Y1014D01*
X734Y1020D01*
X736Y1020D01*
X736Y1026D01*
X738Y1026D01*
X738Y1030D01*
X740Y1030D01*
X740Y1032D01*
X742Y1032D01*
X742Y1036D01*
X744Y1036D01*
X744Y1038D01*
X746Y1038D01*
X746Y1042D01*
X748Y1042D01*
X748Y1044D01*
X750Y1044D01*
X750Y1046D01*
X752Y1046D01*
X752Y1048D01*
X754Y1048D01*
X754Y1050D01*
X756Y1050D01*
X756Y1052D01*
X758Y1052D01*
X758Y1054D01*
X762Y1054D01*
X762Y1056D01*
X764Y1056D01*
X764Y1058D01*
X768Y1058D01*
X768Y1060D01*
X770Y1060D01*
X770Y1100D01*
X772Y1100D01*
X772Y1144D01*
X774Y1144D01*
X774Y1186D01*
X776Y1186D01*
X776Y1244D01*
X774Y1244D01*
X774Y1246D01*
X770Y1246D01*
X770Y1248D01*
X768Y1248D01*
X768Y1252D01*
X766Y1252D01*
X766Y1254D01*
X764Y1254D01*
X764Y1256D01*
X762Y1256D01*
X762Y1260D01*
X760Y1260D01*
X760Y1262D01*
X758Y1262D01*
X758Y1266D01*
X756Y1266D01*
X756Y1272D01*
X754Y1272D01*
X754Y1278D01*
X752Y1278D01*
X752Y1290D01*
X750Y1290D01*
X750Y1300D01*
X752Y1300D01*
X752Y1312D01*
X754Y1312D01*
X754Y1332D01*
X484Y1332D01*
G37*
D02*
G36*
X476Y1262D02*
X476Y1260D01*
X474Y1260D01*
X474Y1256D01*
X472Y1256D01*
X472Y1254D01*
X470Y1254D01*
X470Y1226D01*
X472Y1226D01*
X472Y1216D01*
X474Y1216D01*
X474Y1206D01*
X476Y1206D01*
X476Y1196D01*
X478Y1196D01*
X478Y1186D01*
X480Y1186D01*
X480Y1176D01*
X482Y1176D01*
X482Y1166D01*
X484Y1166D01*
X484Y1156D01*
X486Y1156D01*
X486Y1146D01*
X488Y1146D01*
X488Y1136D01*
X490Y1136D01*
X490Y1126D01*
X492Y1126D01*
X492Y1116D01*
X494Y1116D01*
X494Y1106D01*
X496Y1106D01*
X496Y1096D01*
X498Y1096D01*
X498Y1086D01*
X500Y1086D01*
X500Y1076D01*
X502Y1076D01*
X502Y1066D01*
X504Y1066D01*
X504Y1056D01*
X506Y1056D01*
X506Y1046D01*
X508Y1046D01*
X508Y1036D01*
X510Y1036D01*
X510Y1026D01*
X512Y1026D01*
X512Y1016D01*
X514Y1016D01*
X514Y1006D01*
X516Y1006D01*
X516Y996D01*
X518Y996D01*
X518Y986D01*
X520Y986D01*
X520Y976D01*
X522Y976D01*
X522Y968D01*
X524Y968D01*
X524Y958D01*
X526Y958D01*
X526Y948D01*
X528Y948D01*
X528Y938D01*
X530Y938D01*
X530Y928D01*
X532Y928D01*
X532Y918D01*
X534Y918D01*
X534Y908D01*
X536Y908D01*
X536Y898D01*
X538Y898D01*
X538Y888D01*
X540Y888D01*
X540Y878D01*
X542Y878D01*
X542Y868D01*
X544Y868D01*
X544Y860D01*
X580Y860D01*
X580Y1140D01*
X578Y1140D01*
X578Y1142D01*
X576Y1142D01*
X576Y1144D01*
X574Y1144D01*
X574Y1146D01*
X570Y1146D01*
X570Y1148D01*
X568Y1148D01*
X568Y1152D01*
X566Y1152D01*
X566Y1154D01*
X564Y1154D01*
X564Y1156D01*
X562Y1156D01*
X562Y1160D01*
X560Y1160D01*
X560Y1162D01*
X558Y1162D01*
X558Y1166D01*
X556Y1166D01*
X556Y1172D01*
X554Y1172D01*
X554Y1178D01*
X552Y1178D01*
X552Y1190D01*
X550Y1190D01*
X550Y1200D01*
X552Y1200D01*
X552Y1212D01*
X554Y1212D01*
X554Y1218D01*
X556Y1218D01*
X556Y1224D01*
X558Y1224D01*
X558Y1228D01*
X560Y1228D01*
X560Y1230D01*
X562Y1230D01*
X562Y1234D01*
X564Y1234D01*
X564Y1236D01*
X566Y1236D01*
X566Y1238D01*
X568Y1238D01*
X568Y1242D01*
X570Y1242D01*
X570Y1244D01*
X572Y1244D01*
X572Y1246D01*
X576Y1246D01*
X576Y1248D01*
X578Y1248D01*
X578Y1250D01*
X580Y1250D01*
X580Y1252D01*
X584Y1252D01*
X584Y1254D01*
X588Y1254D01*
X588Y1256D01*
X592Y1256D01*
X592Y1258D01*
X596Y1258D01*
X596Y1260D01*
X604Y1260D01*
X604Y1262D01*
X476Y1262D01*
G37*
D02*
G36*
X866Y958D02*
X866Y954D01*
X864Y954D01*
X864Y952D01*
X862Y952D01*
X862Y948D01*
X860Y948D01*
X860Y946D01*
X858Y946D01*
X858Y944D01*
X856Y944D01*
X856Y942D01*
X854Y942D01*
X854Y940D01*
X852Y940D01*
X852Y938D01*
X850Y938D01*
X850Y936D01*
X846Y936D01*
X846Y934D01*
X844Y934D01*
X844Y932D01*
X840Y932D01*
X840Y930D01*
X836Y930D01*
X836Y928D01*
X832Y928D01*
X832Y926D01*
X826Y926D01*
X826Y924D01*
X820Y924D01*
X820Y922D01*
X886Y922D01*
X886Y958D01*
X866Y958D01*
G37*
D02*
G36*
X656Y922D02*
X656Y920D01*
X886Y920D01*
X886Y922D01*
X656Y922D01*
G37*
D02*
G36*
X656Y922D02*
X656Y920D01*
X886Y920D01*
X886Y922D01*
X656Y922D01*
G37*
D02*
G36*
X656Y920D02*
X656Y860D01*
X686Y860D01*
X686Y788D01*
X830Y788D01*
X830Y786D01*
X840Y786D01*
X840Y784D01*
X848Y784D01*
X848Y782D01*
X854Y782D01*
X854Y780D01*
X886Y780D01*
X886Y920D01*
X656Y920D01*
G37*
D02*
G36*
X686Y788D02*
X686Y780D01*
X782Y780D01*
X782Y782D01*
X788Y782D01*
X788Y784D01*
X796Y784D01*
X796Y786D01*
X806Y786D01*
X806Y788D01*
X686Y788D01*
G37*
D02*
G36*
X866Y1248D02*
X866Y1246D01*
X864Y1246D01*
X864Y1244D01*
X860Y1244D01*
X860Y1242D01*
X858Y1242D01*
X858Y1240D01*
X856Y1240D01*
X856Y1238D01*
X854Y1238D01*
X854Y1226D01*
X852Y1226D01*
X852Y1184D01*
X850Y1184D01*
X850Y1142D01*
X848Y1142D01*
X848Y1100D01*
X846Y1100D01*
X846Y1054D01*
X850Y1054D01*
X850Y1052D01*
X852Y1052D01*
X852Y1050D01*
X854Y1050D01*
X854Y1048D01*
X856Y1048D01*
X856Y1046D01*
X858Y1046D01*
X858Y1044D01*
X860Y1044D01*
X860Y1042D01*
X862Y1042D01*
X862Y1038D01*
X864Y1038D01*
X864Y1036D01*
X866Y1036D01*
X866Y1034D01*
X886Y1034D01*
X886Y1248D01*
X866Y1248D01*
G37*
D02*
G36*
X40Y512D02*
X40Y40D01*
X162Y40D01*
X162Y60D01*
X160Y60D01*
X160Y62D01*
X158Y62D01*
X158Y66D01*
X156Y66D01*
X156Y72D01*
X154Y72D01*
X154Y78D01*
X152Y78D01*
X152Y90D01*
X150Y90D01*
X150Y100D01*
X152Y100D01*
X152Y112D01*
X154Y112D01*
X154Y118D01*
X156Y118D01*
X156Y124D01*
X158Y124D01*
X158Y128D01*
X160Y128D01*
X160Y130D01*
X162Y130D01*
X162Y134D01*
X164Y134D01*
X164Y156D01*
X112Y156D01*
X112Y158D01*
X104Y158D01*
X104Y160D01*
X100Y160D01*
X100Y162D01*
X96Y162D01*
X96Y164D01*
X94Y164D01*
X94Y166D01*
X92Y166D01*
X92Y168D01*
X90Y168D01*
X90Y170D01*
X88Y170D01*
X88Y172D01*
X86Y172D01*
X86Y176D01*
X84Y176D01*
X84Y180D01*
X82Y180D01*
X82Y184D01*
X80Y184D01*
X80Y512D01*
X40Y512D01*
G37*
D02*
G36*
X686Y512D02*
X686Y488D01*
X684Y488D01*
X684Y478D01*
X682Y478D01*
X682Y472D01*
X680Y472D01*
X680Y466D01*
X678Y466D01*
X678Y462D01*
X676Y462D01*
X676Y460D01*
X674Y460D01*
X674Y456D01*
X672Y456D01*
X672Y454D01*
X670Y454D01*
X670Y434D01*
X744Y434D01*
X744Y432D01*
X828Y432D01*
X828Y430D01*
X834Y430D01*
X834Y428D01*
X838Y428D01*
X838Y426D01*
X842Y426D01*
X842Y424D01*
X844Y424D01*
X844Y422D01*
X846Y422D01*
X846Y420D01*
X848Y420D01*
X848Y418D01*
X850Y418D01*
X850Y414D01*
X852Y414D01*
X852Y410D01*
X854Y410D01*
X854Y406D01*
X856Y406D01*
X856Y394D01*
X858Y394D01*
X858Y150D01*
X860Y150D01*
X860Y148D01*
X864Y148D01*
X864Y146D01*
X866Y146D01*
X866Y144D01*
X886Y144D01*
X886Y512D01*
X686Y512D01*
G37*
D02*
G36*
X156Y456D02*
X156Y428D01*
X410Y428D01*
X410Y430D01*
X400Y430D01*
X400Y432D01*
X394Y432D01*
X394Y434D01*
X390Y434D01*
X390Y436D01*
X386Y436D01*
X386Y438D01*
X382Y438D01*
X382Y440D01*
X380Y440D01*
X380Y442D01*
X378Y442D01*
X378Y444D01*
X374Y444D01*
X374Y446D01*
X372Y446D01*
X372Y448D01*
X370Y448D01*
X370Y450D01*
X368Y450D01*
X368Y454D01*
X366Y454D01*
X366Y456D01*
X156Y456D01*
G37*
D02*
G36*
X458Y442D02*
X458Y440D01*
X454Y440D01*
X454Y438D01*
X452Y438D01*
X452Y436D01*
X448Y436D01*
X448Y434D01*
X444Y434D01*
X444Y432D01*
X438Y432D01*
X438Y430D01*
X428Y430D01*
X428Y428D01*
X480Y428D01*
X480Y442D01*
X458Y442D01*
G37*
D02*
G36*
X156Y428D02*
X156Y426D01*
X480Y426D01*
X480Y428D01*
X156Y428D01*
G37*
D02*
G36*
X156Y428D02*
X156Y426D01*
X480Y426D01*
X480Y428D01*
X156Y428D01*
G37*
D02*
G36*
X156Y426D02*
X156Y362D01*
X332Y362D01*
X332Y360D01*
X340Y360D01*
X340Y358D01*
X344Y358D01*
X344Y356D01*
X518Y356D01*
X518Y358D01*
X506Y358D01*
X506Y360D01*
X502Y360D01*
X502Y362D01*
X498Y362D01*
X498Y364D01*
X494Y364D01*
X494Y366D01*
X492Y366D01*
X492Y368D01*
X490Y368D01*
X490Y370D01*
X488Y370D01*
X488Y374D01*
X486Y374D01*
X486Y376D01*
X484Y376D01*
X484Y380D01*
X482Y380D01*
X482Y386D01*
X480Y386D01*
X480Y426D01*
X156Y426D01*
G37*
D02*
G36*
X156Y362D02*
X156Y346D01*
X176Y346D01*
X176Y348D01*
X178Y348D01*
X178Y350D01*
X180Y350D01*
X180Y352D01*
X184Y352D01*
X184Y354D01*
X188Y354D01*
X188Y356D01*
X192Y356D01*
X192Y358D01*
X196Y358D01*
X196Y360D01*
X204Y360D01*
X204Y362D01*
X156Y362D01*
G37*
D02*
G36*
X232Y362D02*
X232Y360D01*
X240Y360D01*
X240Y358D01*
X244Y358D01*
X244Y356D01*
X248Y356D01*
X248Y354D01*
X252Y354D01*
X252Y352D01*
X256Y352D01*
X256Y350D01*
X258Y350D01*
X258Y348D01*
X278Y348D01*
X278Y350D01*
X280Y350D01*
X280Y352D01*
X284Y352D01*
X284Y354D01*
X288Y354D01*
X288Y356D01*
X292Y356D01*
X292Y358D01*
X296Y358D01*
X296Y360D01*
X304Y360D01*
X304Y362D01*
X232Y362D01*
G37*
D02*
G36*
X520Y358D02*
X520Y356D01*
X668Y356D01*
X668Y358D01*
X520Y358D01*
G37*
D02*
G36*
X348Y356D02*
X348Y354D01*
X668Y354D01*
X668Y356D01*
X348Y356D01*
G37*
D02*
G36*
X348Y356D02*
X348Y354D01*
X668Y354D01*
X668Y356D01*
X348Y356D01*
G37*
D02*
G36*
X352Y354D02*
X352Y352D01*
X356Y352D01*
X356Y350D01*
X358Y350D01*
X358Y348D01*
X362Y348D01*
X362Y346D01*
X364Y346D01*
X364Y344D01*
X366Y344D01*
X366Y342D01*
X368Y342D01*
X368Y340D01*
X370Y340D01*
X370Y336D01*
X372Y336D01*
X372Y334D01*
X374Y334D01*
X374Y332D01*
X376Y332D01*
X376Y328D01*
X378Y328D01*
X378Y324D01*
X380Y324D01*
X380Y320D01*
X382Y320D01*
X382Y314D01*
X384Y314D01*
X384Y304D01*
X386Y304D01*
X386Y286D01*
X384Y286D01*
X384Y276D01*
X382Y276D01*
X382Y270D01*
X380Y270D01*
X380Y266D01*
X378Y266D01*
X378Y262D01*
X376Y262D01*
X376Y260D01*
X374Y260D01*
X374Y256D01*
X372Y256D01*
X372Y234D01*
X374Y234D01*
X374Y232D01*
X376Y232D01*
X376Y228D01*
X378Y228D01*
X378Y224D01*
X380Y224D01*
X380Y220D01*
X382Y220D01*
X382Y214D01*
X384Y214D01*
X384Y204D01*
X386Y204D01*
X386Y186D01*
X384Y186D01*
X384Y176D01*
X382Y176D01*
X382Y170D01*
X380Y170D01*
X380Y166D01*
X378Y166D01*
X378Y162D01*
X376Y162D01*
X376Y160D01*
X374Y160D01*
X374Y156D01*
X372Y156D01*
X372Y154D01*
X370Y154D01*
X370Y134D01*
X404Y134D01*
X404Y136D01*
X406Y136D01*
X406Y138D01*
X408Y138D01*
X408Y140D01*
X410Y140D01*
X410Y142D01*
X412Y142D01*
X412Y144D01*
X414Y144D01*
X414Y146D01*
X416Y146D01*
X416Y148D01*
X418Y148D01*
X418Y150D01*
X420Y150D01*
X420Y152D01*
X422Y152D01*
X422Y154D01*
X424Y154D01*
X424Y156D01*
X426Y156D01*
X426Y158D01*
X428Y158D01*
X428Y160D01*
X430Y160D01*
X430Y162D01*
X432Y162D01*
X432Y164D01*
X434Y164D01*
X434Y166D01*
X436Y166D01*
X436Y168D01*
X438Y168D01*
X438Y170D01*
X440Y170D01*
X440Y172D01*
X442Y172D01*
X442Y174D01*
X444Y174D01*
X444Y176D01*
X446Y176D01*
X446Y178D01*
X448Y178D01*
X448Y180D01*
X450Y180D01*
X450Y182D01*
X452Y182D01*
X452Y184D01*
X454Y184D01*
X454Y186D01*
X456Y186D01*
X456Y188D01*
X458Y188D01*
X458Y190D01*
X460Y190D01*
X460Y192D01*
X462Y192D01*
X462Y194D01*
X464Y194D01*
X464Y196D01*
X466Y196D01*
X466Y198D01*
X468Y198D01*
X468Y200D01*
X470Y200D01*
X470Y202D01*
X472Y202D01*
X472Y204D01*
X474Y204D01*
X474Y206D01*
X476Y206D01*
X476Y208D01*
X478Y208D01*
X478Y210D01*
X480Y210D01*
X480Y212D01*
X482Y212D01*
X482Y214D01*
X484Y214D01*
X484Y216D01*
X486Y216D01*
X486Y218D01*
X488Y218D01*
X488Y220D01*
X490Y220D01*
X490Y222D01*
X492Y222D01*
X492Y224D01*
X494Y224D01*
X494Y226D01*
X496Y226D01*
X496Y228D01*
X500Y228D01*
X500Y230D01*
X504Y230D01*
X504Y232D01*
X510Y232D01*
X510Y234D01*
X664Y234D01*
X664Y256D01*
X662Y256D01*
X662Y260D01*
X660Y260D01*
X660Y262D01*
X658Y262D01*
X658Y266D01*
X656Y266D01*
X656Y272D01*
X654Y272D01*
X654Y278D01*
X652Y278D01*
X652Y290D01*
X650Y290D01*
X650Y300D01*
X652Y300D01*
X652Y312D01*
X654Y312D01*
X654Y318D01*
X656Y318D01*
X656Y324D01*
X658Y324D01*
X658Y328D01*
X660Y328D01*
X660Y330D01*
X662Y330D01*
X662Y334D01*
X664Y334D01*
X664Y336D01*
X666Y336D01*
X666Y338D01*
X668Y338D01*
X668Y354D01*
X352Y354D01*
G37*
D02*
G36*
X534Y158D02*
X534Y156D01*
X532Y156D01*
X532Y154D01*
X530Y154D01*
X530Y152D01*
X528Y152D01*
X528Y150D01*
X526Y150D01*
X526Y148D01*
X524Y148D01*
X524Y146D01*
X522Y146D01*
X522Y144D01*
X520Y144D01*
X520Y142D01*
X518Y142D01*
X518Y140D01*
X516Y140D01*
X516Y138D01*
X514Y138D01*
X514Y136D01*
X512Y136D01*
X512Y134D01*
X510Y134D01*
X510Y132D01*
X508Y132D01*
X508Y130D01*
X506Y130D01*
X506Y128D01*
X504Y128D01*
X504Y126D01*
X502Y126D01*
X502Y124D01*
X500Y124D01*
X500Y122D01*
X498Y122D01*
X498Y120D01*
X496Y120D01*
X496Y118D01*
X494Y118D01*
X494Y116D01*
X492Y116D01*
X492Y114D01*
X490Y114D01*
X490Y112D01*
X488Y112D01*
X488Y110D01*
X486Y110D01*
X486Y108D01*
X484Y108D01*
X484Y106D01*
X482Y106D01*
X482Y104D01*
X480Y104D01*
X480Y102D01*
X478Y102D01*
X478Y100D01*
X476Y100D01*
X476Y98D01*
X474Y98D01*
X474Y96D01*
X472Y96D01*
X472Y94D01*
X470Y94D01*
X470Y92D01*
X468Y92D01*
X468Y90D01*
X466Y90D01*
X466Y88D01*
X464Y88D01*
X464Y86D01*
X462Y86D01*
X462Y84D01*
X460Y84D01*
X460Y82D01*
X458Y82D01*
X458Y80D01*
X456Y80D01*
X456Y78D01*
X454Y78D01*
X454Y76D01*
X452Y76D01*
X452Y74D01*
X450Y74D01*
X450Y72D01*
X448Y72D01*
X448Y70D01*
X446Y70D01*
X446Y68D01*
X442Y68D01*
X442Y66D01*
X440Y66D01*
X440Y64D01*
X438Y64D01*
X438Y62D01*
X434Y62D01*
X434Y60D01*
X428Y60D01*
X428Y40D01*
X560Y40D01*
X560Y60D01*
X558Y60D01*
X558Y64D01*
X556Y64D01*
X556Y68D01*
X554Y68D01*
X554Y72D01*
X552Y72D01*
X552Y80D01*
X550Y80D01*
X550Y110D01*
X552Y110D01*
X552Y118D01*
X554Y118D01*
X554Y122D01*
X556Y122D01*
X556Y126D01*
X558Y126D01*
X558Y130D01*
X560Y130D01*
X560Y134D01*
X562Y134D01*
X562Y136D01*
X564Y136D01*
X564Y138D01*
X566Y138D01*
X566Y158D01*
X534Y158D01*
G37*
D02*
G04 End of Copper0*
M02*