G04 MADE WITH FRITZING*
G04 WWW.FRITZING.ORG*
G04 DOUBLE SIDED*
G04 HOLES PLATED*
G04 CONTOUR ON CENTER OF CONTOUR VECTOR*
%ASAXBY*%
%FSLAX23Y23*%
%MOIN*%
%OFA0B0*%
%SFA1.0B1.0*%
%ADD10C,0.075000*%
%ADD11C,0.072361*%
%ADD12C,0.072917*%
%ADD13C,0.078000*%
%ADD14C,0.087500*%
%ADD15R,0.072361X0.072361*%
%ADD16C,0.016000*%
%LNCOPPER1*%
G90*
G70*
G54D10*
X105Y1263D03*
X105Y265D03*
X718Y295D03*
X318Y295D03*
X318Y195D03*
X718Y195D03*
G54D11*
X619Y795D03*
G54D12*
X619Y495D03*
X519Y795D03*
X519Y495D03*
X419Y795D03*
X419Y495D03*
G54D10*
X218Y95D03*
X218Y195D03*
X218Y295D03*
G54D13*
X318Y1295D03*
X218Y1295D03*
X618Y95D03*
X718Y95D03*
X818Y95D03*
G54D10*
X218Y1195D03*
X618Y1195D03*
X418Y1295D03*
X818Y1295D03*
G54D14*
X804Y995D03*
X218Y995D03*
G54D15*
X619Y795D03*
G54D16*
X518Y95D02*
X599Y95D01*
D02*
X518Y295D02*
X518Y95D01*
D02*
X336Y295D02*
X518Y295D01*
G36*
X40Y1332D02*
X40Y1128D01*
X204Y1128D01*
X204Y1130D01*
X198Y1130D01*
X198Y1132D01*
X192Y1132D01*
X192Y1134D01*
X188Y1134D01*
X188Y1136D01*
X184Y1136D01*
X184Y1138D01*
X180Y1138D01*
X180Y1140D01*
X178Y1140D01*
X178Y1142D01*
X176Y1142D01*
X176Y1144D01*
X174Y1144D01*
X174Y1146D01*
X170Y1146D01*
X170Y1148D01*
X168Y1148D01*
X168Y1152D01*
X166Y1152D01*
X166Y1154D01*
X164Y1154D01*
X164Y1156D01*
X162Y1156D01*
X162Y1160D01*
X160Y1160D01*
X160Y1162D01*
X158Y1162D01*
X158Y1166D01*
X156Y1166D01*
X156Y1172D01*
X154Y1172D01*
X154Y1178D01*
X152Y1178D01*
X152Y1190D01*
X150Y1190D01*
X150Y1200D01*
X152Y1200D01*
X152Y1212D01*
X154Y1212D01*
X154Y1218D01*
X156Y1218D01*
X156Y1224D01*
X158Y1224D01*
X158Y1228D01*
X160Y1228D01*
X160Y1230D01*
X162Y1230D01*
X162Y1234D01*
X164Y1234D01*
X164Y1254D01*
X162Y1254D01*
X162Y1256D01*
X160Y1256D01*
X160Y1260D01*
X158Y1260D01*
X158Y1264D01*
X156Y1264D01*
X156Y1268D01*
X154Y1268D01*
X154Y1272D01*
X152Y1272D01*
X152Y1280D01*
X150Y1280D01*
X150Y1310D01*
X152Y1310D01*
X152Y1332D01*
X40Y1332D01*
G37*
D02*
G36*
X484Y1332D02*
X484Y1304D01*
X486Y1304D01*
X486Y1286D01*
X484Y1286D01*
X484Y1276D01*
X482Y1276D01*
X482Y1270D01*
X480Y1270D01*
X480Y1266D01*
X478Y1266D01*
X478Y1262D01*
X632Y1262D01*
X632Y1260D01*
X640Y1260D01*
X640Y1258D01*
X644Y1258D01*
X644Y1256D01*
X648Y1256D01*
X648Y1254D01*
X652Y1254D01*
X652Y1252D01*
X656Y1252D01*
X656Y1250D01*
X658Y1250D01*
X658Y1248D01*
X662Y1248D01*
X662Y1246D01*
X664Y1246D01*
X664Y1244D01*
X666Y1244D01*
X666Y1242D01*
X668Y1242D01*
X668Y1240D01*
X670Y1240D01*
X670Y1236D01*
X672Y1236D01*
X672Y1234D01*
X674Y1234D01*
X674Y1232D01*
X676Y1232D01*
X676Y1228D01*
X804Y1228D01*
X804Y1230D01*
X798Y1230D01*
X798Y1232D01*
X792Y1232D01*
X792Y1234D01*
X788Y1234D01*
X788Y1236D01*
X784Y1236D01*
X784Y1238D01*
X780Y1238D01*
X780Y1240D01*
X778Y1240D01*
X778Y1242D01*
X776Y1242D01*
X776Y1244D01*
X774Y1244D01*
X774Y1246D01*
X770Y1246D01*
X770Y1248D01*
X768Y1248D01*
X768Y1252D01*
X766Y1252D01*
X766Y1254D01*
X764Y1254D01*
X764Y1256D01*
X762Y1256D01*
X762Y1260D01*
X760Y1260D01*
X760Y1262D01*
X758Y1262D01*
X758Y1266D01*
X756Y1266D01*
X756Y1272D01*
X754Y1272D01*
X754Y1278D01*
X752Y1278D01*
X752Y1290D01*
X750Y1290D01*
X750Y1300D01*
X752Y1300D01*
X752Y1312D01*
X754Y1312D01*
X754Y1332D01*
X484Y1332D01*
G37*
D02*
G36*
X476Y1262D02*
X476Y1260D01*
X474Y1260D01*
X474Y1256D01*
X472Y1256D01*
X472Y1254D01*
X470Y1254D01*
X470Y1250D01*
X468Y1250D01*
X468Y1248D01*
X466Y1248D01*
X466Y1246D01*
X464Y1246D01*
X464Y1244D01*
X460Y1244D01*
X460Y1242D01*
X458Y1242D01*
X458Y1240D01*
X456Y1240D01*
X456Y1238D01*
X452Y1238D01*
X452Y1236D01*
X448Y1236D01*
X448Y1234D01*
X444Y1234D01*
X444Y1232D01*
X440Y1232D01*
X440Y1230D01*
X432Y1230D01*
X432Y1228D01*
X560Y1228D01*
X560Y1230D01*
X562Y1230D01*
X562Y1234D01*
X564Y1234D01*
X564Y1236D01*
X566Y1236D01*
X566Y1238D01*
X568Y1238D01*
X568Y1242D01*
X570Y1242D01*
X570Y1244D01*
X572Y1244D01*
X572Y1246D01*
X576Y1246D01*
X576Y1248D01*
X578Y1248D01*
X578Y1250D01*
X580Y1250D01*
X580Y1252D01*
X584Y1252D01*
X584Y1254D01*
X588Y1254D01*
X588Y1256D01*
X592Y1256D01*
X592Y1258D01*
X596Y1258D01*
X596Y1260D01*
X604Y1260D01*
X604Y1262D01*
X476Y1262D01*
G37*
D02*
G36*
X866Y1248D02*
X866Y1246D01*
X864Y1246D01*
X864Y1244D01*
X860Y1244D01*
X860Y1242D01*
X858Y1242D01*
X858Y1240D01*
X856Y1240D01*
X856Y1238D01*
X852Y1238D01*
X852Y1236D01*
X848Y1236D01*
X848Y1234D01*
X844Y1234D01*
X844Y1232D01*
X840Y1232D01*
X840Y1230D01*
X832Y1230D01*
X832Y1228D01*
X886Y1228D01*
X886Y1248D01*
X866Y1248D01*
G37*
D02*
G36*
X358Y1240D02*
X358Y1238D01*
X356Y1238D01*
X356Y1236D01*
X352Y1236D01*
X352Y1234D01*
X348Y1234D01*
X348Y1232D01*
X344Y1232D01*
X344Y1230D01*
X338Y1230D01*
X338Y1228D01*
X404Y1228D01*
X404Y1230D01*
X398Y1230D01*
X398Y1232D01*
X392Y1232D01*
X392Y1234D01*
X388Y1234D01*
X388Y1236D01*
X384Y1236D01*
X384Y1238D01*
X380Y1238D01*
X380Y1240D01*
X358Y1240D01*
G37*
D02*
G36*
X282Y1228D02*
X282Y1226D01*
X308Y1226D01*
X308Y1228D01*
X282Y1228D01*
G37*
D02*
G36*
X328Y1228D02*
X328Y1226D01*
X558Y1226D01*
X558Y1228D01*
X328Y1228D01*
G37*
D02*
G36*
X328Y1228D02*
X328Y1226D01*
X558Y1226D01*
X558Y1228D01*
X328Y1228D01*
G37*
D02*
G36*
X678Y1228D02*
X678Y1226D01*
X886Y1226D01*
X886Y1228D01*
X678Y1228D01*
G37*
D02*
G36*
X678Y1228D02*
X678Y1226D01*
X886Y1226D01*
X886Y1228D01*
X678Y1228D01*
G37*
D02*
G36*
X282Y1226D02*
X282Y1224D01*
X558Y1224D01*
X558Y1226D01*
X282Y1226D01*
G37*
D02*
G36*
X282Y1226D02*
X282Y1224D01*
X558Y1224D01*
X558Y1226D01*
X282Y1226D01*
G37*
D02*
G36*
X678Y1226D02*
X678Y1224D01*
X680Y1224D01*
X680Y1220D01*
X682Y1220D01*
X682Y1214D01*
X684Y1214D01*
X684Y1204D01*
X686Y1204D01*
X686Y1186D01*
X684Y1186D01*
X684Y1176D01*
X682Y1176D01*
X682Y1170D01*
X680Y1170D01*
X680Y1166D01*
X678Y1166D01*
X678Y1162D01*
X676Y1162D01*
X676Y1160D01*
X674Y1160D01*
X674Y1156D01*
X672Y1156D01*
X672Y1154D01*
X670Y1154D01*
X670Y1150D01*
X668Y1150D01*
X668Y1148D01*
X666Y1148D01*
X666Y1146D01*
X664Y1146D01*
X664Y1144D01*
X660Y1144D01*
X660Y1142D01*
X658Y1142D01*
X658Y1140D01*
X656Y1140D01*
X656Y1138D01*
X652Y1138D01*
X652Y1136D01*
X648Y1136D01*
X648Y1134D01*
X644Y1134D01*
X644Y1132D01*
X640Y1132D01*
X640Y1130D01*
X632Y1130D01*
X632Y1128D01*
X886Y1128D01*
X886Y1226D01*
X678Y1226D01*
G37*
D02*
G36*
X282Y1224D02*
X282Y1214D01*
X284Y1214D01*
X284Y1204D01*
X286Y1204D01*
X286Y1186D01*
X284Y1186D01*
X284Y1176D01*
X282Y1176D01*
X282Y1170D01*
X280Y1170D01*
X280Y1166D01*
X278Y1166D01*
X278Y1162D01*
X276Y1162D01*
X276Y1160D01*
X274Y1160D01*
X274Y1156D01*
X272Y1156D01*
X272Y1154D01*
X270Y1154D01*
X270Y1150D01*
X268Y1150D01*
X268Y1148D01*
X266Y1148D01*
X266Y1146D01*
X264Y1146D01*
X264Y1144D01*
X260Y1144D01*
X260Y1142D01*
X258Y1142D01*
X258Y1140D01*
X256Y1140D01*
X256Y1138D01*
X252Y1138D01*
X252Y1136D01*
X248Y1136D01*
X248Y1134D01*
X244Y1134D01*
X244Y1132D01*
X240Y1132D01*
X240Y1130D01*
X232Y1130D01*
X232Y1128D01*
X604Y1128D01*
X604Y1130D01*
X598Y1130D01*
X598Y1132D01*
X592Y1132D01*
X592Y1134D01*
X588Y1134D01*
X588Y1136D01*
X584Y1136D01*
X584Y1138D01*
X580Y1138D01*
X580Y1140D01*
X578Y1140D01*
X578Y1142D01*
X576Y1142D01*
X576Y1144D01*
X574Y1144D01*
X574Y1146D01*
X570Y1146D01*
X570Y1148D01*
X568Y1148D01*
X568Y1152D01*
X566Y1152D01*
X566Y1154D01*
X564Y1154D01*
X564Y1156D01*
X562Y1156D01*
X562Y1160D01*
X560Y1160D01*
X560Y1162D01*
X558Y1162D01*
X558Y1166D01*
X556Y1166D01*
X556Y1172D01*
X554Y1172D01*
X554Y1178D01*
X552Y1178D01*
X552Y1190D01*
X550Y1190D01*
X550Y1200D01*
X552Y1200D01*
X552Y1212D01*
X554Y1212D01*
X554Y1218D01*
X556Y1218D01*
X556Y1224D01*
X282Y1224D01*
G37*
D02*
G36*
X40Y1128D02*
X40Y1126D01*
X886Y1126D01*
X886Y1128D01*
X40Y1128D01*
G37*
D02*
G36*
X40Y1128D02*
X40Y1126D01*
X886Y1126D01*
X886Y1128D01*
X40Y1128D01*
G37*
D02*
G36*
X40Y1128D02*
X40Y1126D01*
X886Y1126D01*
X886Y1128D01*
X40Y1128D01*
G37*
D02*
G36*
X40Y1126D02*
X40Y1068D01*
X820Y1068D01*
X820Y1066D01*
X828Y1066D01*
X828Y1064D01*
X832Y1064D01*
X832Y1062D01*
X836Y1062D01*
X836Y1060D01*
X840Y1060D01*
X840Y1058D01*
X844Y1058D01*
X844Y1056D01*
X846Y1056D01*
X846Y1054D01*
X850Y1054D01*
X850Y1052D01*
X852Y1052D01*
X852Y1050D01*
X854Y1050D01*
X854Y1048D01*
X856Y1048D01*
X856Y1046D01*
X858Y1046D01*
X858Y1044D01*
X860Y1044D01*
X860Y1042D01*
X862Y1042D01*
X862Y1038D01*
X864Y1038D01*
X864Y1036D01*
X866Y1036D01*
X866Y1034D01*
X886Y1034D01*
X886Y1126D01*
X40Y1126D01*
G37*
D02*
G36*
X40Y1068D02*
X40Y922D01*
X202Y922D01*
X202Y924D01*
X196Y924D01*
X196Y926D01*
X190Y926D01*
X190Y928D01*
X186Y928D01*
X186Y930D01*
X182Y930D01*
X182Y932D01*
X178Y932D01*
X178Y934D01*
X176Y934D01*
X176Y936D01*
X174Y936D01*
X174Y938D01*
X170Y938D01*
X170Y940D01*
X168Y940D01*
X168Y942D01*
X166Y942D01*
X166Y944D01*
X164Y944D01*
X164Y946D01*
X162Y946D01*
X162Y948D01*
X160Y948D01*
X160Y952D01*
X158Y952D01*
X158Y954D01*
X156Y954D01*
X156Y958D01*
X154Y958D01*
X154Y960D01*
X152Y960D01*
X152Y964D01*
X150Y964D01*
X150Y970D01*
X148Y970D01*
X148Y976D01*
X146Y976D01*
X146Y986D01*
X144Y986D01*
X144Y1004D01*
X146Y1004D01*
X146Y1014D01*
X148Y1014D01*
X148Y1020D01*
X150Y1020D01*
X150Y1026D01*
X152Y1026D01*
X152Y1030D01*
X154Y1030D01*
X154Y1032D01*
X156Y1032D01*
X156Y1036D01*
X158Y1036D01*
X158Y1038D01*
X160Y1038D01*
X160Y1042D01*
X162Y1042D01*
X162Y1044D01*
X164Y1044D01*
X164Y1046D01*
X166Y1046D01*
X166Y1048D01*
X168Y1048D01*
X168Y1050D01*
X170Y1050D01*
X170Y1052D01*
X172Y1052D01*
X172Y1054D01*
X176Y1054D01*
X176Y1056D01*
X178Y1056D01*
X178Y1058D01*
X182Y1058D01*
X182Y1060D01*
X186Y1060D01*
X186Y1062D01*
X190Y1062D01*
X190Y1064D01*
X196Y1064D01*
X196Y1066D01*
X202Y1066D01*
X202Y1068D01*
X40Y1068D01*
G37*
D02*
G36*
X234Y1068D02*
X234Y1066D01*
X242Y1066D01*
X242Y1064D01*
X246Y1064D01*
X246Y1062D01*
X250Y1062D01*
X250Y1060D01*
X254Y1060D01*
X254Y1058D01*
X258Y1058D01*
X258Y1056D01*
X260Y1056D01*
X260Y1054D01*
X264Y1054D01*
X264Y1052D01*
X266Y1052D01*
X266Y1050D01*
X268Y1050D01*
X268Y1048D01*
X270Y1048D01*
X270Y1046D01*
X272Y1046D01*
X272Y1044D01*
X274Y1044D01*
X274Y1042D01*
X276Y1042D01*
X276Y1040D01*
X278Y1040D01*
X278Y1036D01*
X280Y1036D01*
X280Y1034D01*
X282Y1034D01*
X282Y1030D01*
X284Y1030D01*
X284Y1026D01*
X286Y1026D01*
X286Y1022D01*
X288Y1022D01*
X288Y1016D01*
X290Y1016D01*
X290Y1006D01*
X292Y1006D01*
X292Y984D01*
X290Y984D01*
X290Y974D01*
X288Y974D01*
X288Y968D01*
X286Y968D01*
X286Y964D01*
X284Y964D01*
X284Y960D01*
X282Y960D01*
X282Y956D01*
X280Y956D01*
X280Y954D01*
X278Y954D01*
X278Y950D01*
X276Y950D01*
X276Y948D01*
X274Y948D01*
X274Y946D01*
X272Y946D01*
X272Y944D01*
X270Y944D01*
X270Y942D01*
X268Y942D01*
X268Y940D01*
X266Y940D01*
X266Y938D01*
X264Y938D01*
X264Y936D01*
X260Y936D01*
X260Y934D01*
X258Y934D01*
X258Y932D01*
X254Y932D01*
X254Y930D01*
X250Y930D01*
X250Y928D01*
X246Y928D01*
X246Y926D01*
X240Y926D01*
X240Y924D01*
X234Y924D01*
X234Y922D01*
X788Y922D01*
X788Y924D01*
X782Y924D01*
X782Y926D01*
X776Y926D01*
X776Y928D01*
X772Y928D01*
X772Y930D01*
X768Y930D01*
X768Y932D01*
X764Y932D01*
X764Y934D01*
X762Y934D01*
X762Y936D01*
X758Y936D01*
X758Y938D01*
X756Y938D01*
X756Y940D01*
X754Y940D01*
X754Y942D01*
X752Y942D01*
X752Y944D01*
X750Y944D01*
X750Y946D01*
X748Y946D01*
X748Y948D01*
X746Y948D01*
X746Y952D01*
X744Y952D01*
X744Y954D01*
X742Y954D01*
X742Y958D01*
X740Y958D01*
X740Y960D01*
X738Y960D01*
X738Y964D01*
X736Y964D01*
X736Y970D01*
X734Y970D01*
X734Y976D01*
X732Y976D01*
X732Y986D01*
X730Y986D01*
X730Y1004D01*
X732Y1004D01*
X732Y1014D01*
X734Y1014D01*
X734Y1020D01*
X736Y1020D01*
X736Y1026D01*
X738Y1026D01*
X738Y1030D01*
X740Y1030D01*
X740Y1032D01*
X742Y1032D01*
X742Y1036D01*
X744Y1036D01*
X744Y1038D01*
X746Y1038D01*
X746Y1042D01*
X748Y1042D01*
X748Y1044D01*
X750Y1044D01*
X750Y1046D01*
X752Y1046D01*
X752Y1048D01*
X754Y1048D01*
X754Y1050D01*
X756Y1050D01*
X756Y1052D01*
X758Y1052D01*
X758Y1054D01*
X762Y1054D01*
X762Y1056D01*
X764Y1056D01*
X764Y1058D01*
X768Y1058D01*
X768Y1060D01*
X772Y1060D01*
X772Y1062D01*
X776Y1062D01*
X776Y1064D01*
X780Y1064D01*
X780Y1066D01*
X788Y1066D01*
X788Y1068D01*
X234Y1068D01*
G37*
D02*
G36*
X866Y958D02*
X866Y954D01*
X864Y954D01*
X864Y952D01*
X862Y952D01*
X862Y948D01*
X860Y948D01*
X860Y946D01*
X858Y946D01*
X858Y944D01*
X856Y944D01*
X856Y942D01*
X854Y942D01*
X854Y940D01*
X852Y940D01*
X852Y938D01*
X850Y938D01*
X850Y936D01*
X846Y936D01*
X846Y934D01*
X844Y934D01*
X844Y932D01*
X840Y932D01*
X840Y930D01*
X836Y930D01*
X836Y928D01*
X832Y928D01*
X832Y926D01*
X826Y926D01*
X826Y924D01*
X820Y924D01*
X820Y922D01*
X886Y922D01*
X886Y958D01*
X866Y958D01*
G37*
D02*
G36*
X40Y922D02*
X40Y920D01*
X886Y920D01*
X886Y922D01*
X40Y922D01*
G37*
D02*
G36*
X40Y922D02*
X40Y920D01*
X886Y920D01*
X886Y922D01*
X40Y922D01*
G37*
D02*
G36*
X40Y922D02*
X40Y920D01*
X886Y920D01*
X886Y922D01*
X40Y922D01*
G37*
D02*
G36*
X40Y920D02*
X40Y862D01*
X522Y862D01*
X522Y860D01*
X686Y860D01*
X686Y788D01*
X830Y788D01*
X830Y786D01*
X840Y786D01*
X840Y784D01*
X848Y784D01*
X848Y782D01*
X854Y782D01*
X854Y780D01*
X858Y780D01*
X858Y778D01*
X862Y778D01*
X862Y776D01*
X886Y776D01*
X886Y920D01*
X40Y920D01*
G37*
D02*
G36*
X40Y862D02*
X40Y788D01*
X130Y788D01*
X130Y786D01*
X140Y786D01*
X140Y784D01*
X148Y784D01*
X148Y782D01*
X154Y782D01*
X154Y780D01*
X158Y780D01*
X158Y778D01*
X162Y778D01*
X162Y776D01*
X352Y776D01*
X352Y802D01*
X354Y802D01*
X354Y812D01*
X356Y812D01*
X356Y818D01*
X358Y818D01*
X358Y824D01*
X360Y824D01*
X360Y826D01*
X362Y826D01*
X362Y830D01*
X364Y830D01*
X364Y834D01*
X366Y834D01*
X366Y836D01*
X368Y836D01*
X368Y838D01*
X370Y838D01*
X370Y840D01*
X372Y840D01*
X372Y842D01*
X374Y842D01*
X374Y844D01*
X376Y844D01*
X376Y846D01*
X378Y846D01*
X378Y848D01*
X382Y848D01*
X382Y850D01*
X384Y850D01*
X384Y852D01*
X388Y852D01*
X388Y854D01*
X392Y854D01*
X392Y856D01*
X396Y856D01*
X396Y858D01*
X402Y858D01*
X402Y860D01*
X416Y860D01*
X416Y862D01*
X40Y862D01*
G37*
D02*
G36*
X422Y862D02*
X422Y860D01*
X436Y860D01*
X436Y858D01*
X442Y858D01*
X442Y856D01*
X446Y856D01*
X446Y854D01*
X450Y854D01*
X450Y852D01*
X454Y852D01*
X454Y850D01*
X456Y850D01*
X456Y848D01*
X482Y848D01*
X482Y850D01*
X484Y850D01*
X484Y852D01*
X488Y852D01*
X488Y854D01*
X492Y854D01*
X492Y856D01*
X496Y856D01*
X496Y858D01*
X502Y858D01*
X502Y860D01*
X516Y860D01*
X516Y862D01*
X422Y862D01*
G37*
D02*
G36*
X40Y788D02*
X40Y776D01*
X74Y776D01*
X74Y778D01*
X78Y778D01*
X78Y780D01*
X82Y780D01*
X82Y782D01*
X88Y782D01*
X88Y784D01*
X96Y784D01*
X96Y786D01*
X106Y786D01*
X106Y788D01*
X40Y788D01*
G37*
D02*
G36*
X686Y788D02*
X686Y776D01*
X774Y776D01*
X774Y778D01*
X778Y778D01*
X778Y780D01*
X782Y780D01*
X782Y782D01*
X788Y782D01*
X788Y784D01*
X796Y784D01*
X796Y786D01*
X806Y786D01*
X806Y788D01*
X686Y788D01*
G37*
D02*
G36*
X40Y508D02*
X40Y428D01*
X410Y428D01*
X410Y430D01*
X400Y430D01*
X400Y432D01*
X394Y432D01*
X394Y434D01*
X390Y434D01*
X390Y436D01*
X386Y436D01*
X386Y438D01*
X382Y438D01*
X382Y440D01*
X380Y440D01*
X380Y442D01*
X378Y442D01*
X378Y444D01*
X374Y444D01*
X374Y446D01*
X372Y446D01*
X372Y448D01*
X370Y448D01*
X370Y450D01*
X368Y450D01*
X368Y454D01*
X366Y454D01*
X366Y456D01*
X364Y456D01*
X364Y460D01*
X362Y460D01*
X362Y462D01*
X360Y462D01*
X360Y466D01*
X358Y466D01*
X358Y470D01*
X356Y470D01*
X356Y476D01*
X354Y476D01*
X354Y486D01*
X352Y486D01*
X352Y508D01*
X40Y508D01*
G37*
D02*
G36*
X686Y508D02*
X686Y488D01*
X684Y488D01*
X684Y478D01*
X682Y478D01*
X682Y472D01*
X680Y472D01*
X680Y466D01*
X678Y466D01*
X678Y462D01*
X676Y462D01*
X676Y460D01*
X674Y460D01*
X674Y456D01*
X672Y456D01*
X672Y454D01*
X670Y454D01*
X670Y452D01*
X668Y452D01*
X668Y448D01*
X666Y448D01*
X666Y446D01*
X662Y446D01*
X662Y444D01*
X660Y444D01*
X660Y442D01*
X658Y442D01*
X658Y440D01*
X654Y440D01*
X654Y438D01*
X652Y438D01*
X652Y436D01*
X648Y436D01*
X648Y434D01*
X644Y434D01*
X644Y432D01*
X638Y432D01*
X638Y430D01*
X628Y430D01*
X628Y428D01*
X886Y428D01*
X886Y508D01*
X686Y508D01*
G37*
D02*
G36*
X458Y442D02*
X458Y440D01*
X454Y440D01*
X454Y438D01*
X452Y438D01*
X452Y436D01*
X448Y436D01*
X448Y434D01*
X444Y434D01*
X444Y432D01*
X438Y432D01*
X438Y430D01*
X428Y430D01*
X428Y428D01*
X510Y428D01*
X510Y430D01*
X500Y430D01*
X500Y432D01*
X494Y432D01*
X494Y434D01*
X490Y434D01*
X490Y436D01*
X486Y436D01*
X486Y438D01*
X482Y438D01*
X482Y440D01*
X480Y440D01*
X480Y442D01*
X458Y442D01*
G37*
D02*
G36*
X558Y442D02*
X558Y440D01*
X554Y440D01*
X554Y438D01*
X552Y438D01*
X552Y436D01*
X548Y436D01*
X548Y434D01*
X544Y434D01*
X544Y432D01*
X538Y432D01*
X538Y430D01*
X528Y430D01*
X528Y428D01*
X610Y428D01*
X610Y430D01*
X600Y430D01*
X600Y432D01*
X594Y432D01*
X594Y434D01*
X590Y434D01*
X590Y436D01*
X586Y436D01*
X586Y438D01*
X582Y438D01*
X582Y440D01*
X580Y440D01*
X580Y442D01*
X558Y442D01*
G37*
D02*
G36*
X40Y428D02*
X40Y426D01*
X886Y426D01*
X886Y428D01*
X40Y428D01*
G37*
D02*
G36*
X40Y428D02*
X40Y426D01*
X886Y426D01*
X886Y428D01*
X40Y428D01*
G37*
D02*
G36*
X40Y428D02*
X40Y426D01*
X886Y426D01*
X886Y428D01*
X40Y428D01*
G37*
D02*
G36*
X40Y428D02*
X40Y426D01*
X886Y426D01*
X886Y428D01*
X40Y428D01*
G37*
D02*
G36*
X40Y426D02*
X40Y362D01*
X732Y362D01*
X732Y360D01*
X740Y360D01*
X740Y358D01*
X744Y358D01*
X744Y356D01*
X748Y356D01*
X748Y354D01*
X752Y354D01*
X752Y352D01*
X756Y352D01*
X756Y350D01*
X758Y350D01*
X758Y348D01*
X762Y348D01*
X762Y346D01*
X764Y346D01*
X764Y344D01*
X766Y344D01*
X766Y342D01*
X768Y342D01*
X768Y340D01*
X770Y340D01*
X770Y336D01*
X772Y336D01*
X772Y334D01*
X774Y334D01*
X774Y332D01*
X776Y332D01*
X776Y328D01*
X778Y328D01*
X778Y324D01*
X780Y324D01*
X780Y320D01*
X782Y320D01*
X782Y314D01*
X784Y314D01*
X784Y304D01*
X786Y304D01*
X786Y286D01*
X784Y286D01*
X784Y276D01*
X782Y276D01*
X782Y270D01*
X780Y270D01*
X780Y266D01*
X778Y266D01*
X778Y262D01*
X776Y262D01*
X776Y260D01*
X774Y260D01*
X774Y256D01*
X772Y256D01*
X772Y234D01*
X774Y234D01*
X774Y232D01*
X776Y232D01*
X776Y228D01*
X778Y228D01*
X778Y224D01*
X780Y224D01*
X780Y220D01*
X782Y220D01*
X782Y214D01*
X784Y214D01*
X784Y204D01*
X786Y204D01*
X786Y186D01*
X784Y186D01*
X784Y176D01*
X782Y176D01*
X782Y164D01*
X830Y164D01*
X830Y162D01*
X838Y162D01*
X838Y160D01*
X844Y160D01*
X844Y158D01*
X848Y158D01*
X848Y156D01*
X852Y156D01*
X852Y154D01*
X856Y154D01*
X856Y152D01*
X858Y152D01*
X858Y150D01*
X860Y150D01*
X860Y148D01*
X864Y148D01*
X864Y146D01*
X866Y146D01*
X866Y144D01*
X886Y144D01*
X886Y426D01*
X40Y426D01*
G37*
D02*
G36*
X40Y362D02*
X40Y40D01*
X162Y40D01*
X162Y60D01*
X160Y60D01*
X160Y62D01*
X158Y62D01*
X158Y66D01*
X156Y66D01*
X156Y72D01*
X154Y72D01*
X154Y78D01*
X152Y78D01*
X152Y90D01*
X150Y90D01*
X150Y100D01*
X152Y100D01*
X152Y112D01*
X154Y112D01*
X154Y118D01*
X156Y118D01*
X156Y124D01*
X158Y124D01*
X158Y128D01*
X160Y128D01*
X160Y130D01*
X162Y130D01*
X162Y134D01*
X164Y134D01*
X164Y156D01*
X162Y156D01*
X162Y160D01*
X160Y160D01*
X160Y162D01*
X158Y162D01*
X158Y166D01*
X156Y166D01*
X156Y172D01*
X154Y172D01*
X154Y178D01*
X152Y178D01*
X152Y190D01*
X150Y190D01*
X150Y200D01*
X152Y200D01*
X152Y212D01*
X154Y212D01*
X154Y218D01*
X156Y218D01*
X156Y224D01*
X158Y224D01*
X158Y228D01*
X160Y228D01*
X160Y230D01*
X162Y230D01*
X162Y234D01*
X164Y234D01*
X164Y256D01*
X162Y256D01*
X162Y260D01*
X160Y260D01*
X160Y262D01*
X158Y262D01*
X158Y266D01*
X156Y266D01*
X156Y272D01*
X154Y272D01*
X154Y278D01*
X152Y278D01*
X152Y290D01*
X150Y290D01*
X150Y300D01*
X152Y300D01*
X152Y312D01*
X154Y312D01*
X154Y318D01*
X156Y318D01*
X156Y324D01*
X158Y324D01*
X158Y328D01*
X160Y328D01*
X160Y330D01*
X162Y330D01*
X162Y334D01*
X164Y334D01*
X164Y336D01*
X166Y336D01*
X166Y338D01*
X168Y338D01*
X168Y342D01*
X170Y342D01*
X170Y344D01*
X172Y344D01*
X172Y346D01*
X176Y346D01*
X176Y348D01*
X178Y348D01*
X178Y350D01*
X180Y350D01*
X180Y352D01*
X184Y352D01*
X184Y354D01*
X188Y354D01*
X188Y356D01*
X192Y356D01*
X192Y358D01*
X196Y358D01*
X196Y360D01*
X204Y360D01*
X204Y362D01*
X40Y362D01*
G37*
D02*
G36*
X232Y362D02*
X232Y360D01*
X240Y360D01*
X240Y358D01*
X244Y358D01*
X244Y356D01*
X248Y356D01*
X248Y354D01*
X252Y354D01*
X252Y352D01*
X256Y352D01*
X256Y350D01*
X258Y350D01*
X258Y348D01*
X278Y348D01*
X278Y350D01*
X280Y350D01*
X280Y352D01*
X284Y352D01*
X284Y354D01*
X288Y354D01*
X288Y356D01*
X292Y356D01*
X292Y358D01*
X296Y358D01*
X296Y360D01*
X304Y360D01*
X304Y362D01*
X232Y362D01*
G37*
D02*
G36*
X332Y362D02*
X332Y360D01*
X340Y360D01*
X340Y358D01*
X344Y358D01*
X344Y356D01*
X348Y356D01*
X348Y354D01*
X352Y354D01*
X352Y352D01*
X356Y352D01*
X356Y350D01*
X358Y350D01*
X358Y348D01*
X362Y348D01*
X362Y346D01*
X364Y346D01*
X364Y344D01*
X366Y344D01*
X366Y342D01*
X368Y342D01*
X368Y340D01*
X370Y340D01*
X370Y336D01*
X372Y336D01*
X372Y334D01*
X396Y334D01*
X396Y332D01*
X530Y332D01*
X530Y330D01*
X534Y330D01*
X534Y328D01*
X538Y328D01*
X538Y326D01*
X542Y326D01*
X542Y324D01*
X544Y324D01*
X544Y322D01*
X546Y322D01*
X546Y320D01*
X548Y320D01*
X548Y318D01*
X550Y318D01*
X550Y314D01*
X552Y314D01*
X552Y310D01*
X554Y310D01*
X554Y304D01*
X556Y304D01*
X556Y164D01*
X630Y164D01*
X630Y162D01*
X654Y162D01*
X654Y178D01*
X652Y178D01*
X652Y190D01*
X650Y190D01*
X650Y200D01*
X652Y200D01*
X652Y212D01*
X654Y212D01*
X654Y218D01*
X656Y218D01*
X656Y224D01*
X658Y224D01*
X658Y228D01*
X660Y228D01*
X660Y230D01*
X662Y230D01*
X662Y234D01*
X664Y234D01*
X664Y256D01*
X662Y256D01*
X662Y260D01*
X660Y260D01*
X660Y262D01*
X658Y262D01*
X658Y266D01*
X656Y266D01*
X656Y272D01*
X654Y272D01*
X654Y278D01*
X652Y278D01*
X652Y290D01*
X650Y290D01*
X650Y300D01*
X652Y300D01*
X652Y312D01*
X654Y312D01*
X654Y318D01*
X656Y318D01*
X656Y324D01*
X658Y324D01*
X658Y328D01*
X660Y328D01*
X660Y330D01*
X662Y330D01*
X662Y334D01*
X664Y334D01*
X664Y336D01*
X666Y336D01*
X666Y338D01*
X668Y338D01*
X668Y342D01*
X670Y342D01*
X670Y344D01*
X672Y344D01*
X672Y346D01*
X676Y346D01*
X676Y348D01*
X678Y348D01*
X678Y350D01*
X680Y350D01*
X680Y352D01*
X684Y352D01*
X684Y354D01*
X688Y354D01*
X688Y356D01*
X692Y356D01*
X692Y358D01*
X696Y358D01*
X696Y360D01*
X704Y360D01*
X704Y362D01*
X332Y362D01*
G37*
D02*
G36*
X556Y164D02*
X556Y148D01*
X576Y148D01*
X576Y150D01*
X578Y150D01*
X578Y152D01*
X582Y152D01*
X582Y154D01*
X584Y154D01*
X584Y156D01*
X588Y156D01*
X588Y158D01*
X592Y158D01*
X592Y160D01*
X598Y160D01*
X598Y162D01*
X606Y162D01*
X606Y164D01*
X556Y164D01*
G37*
D02*
G36*
X782Y164D02*
X782Y162D01*
X806Y162D01*
X806Y164D01*
X782Y164D01*
G37*
D02*
G36*
X372Y256D02*
X372Y234D01*
X374Y234D01*
X374Y232D01*
X376Y232D01*
X376Y228D01*
X378Y228D01*
X378Y224D01*
X380Y224D01*
X380Y220D01*
X382Y220D01*
X382Y214D01*
X384Y214D01*
X384Y204D01*
X386Y204D01*
X386Y186D01*
X384Y186D01*
X384Y176D01*
X382Y176D01*
X382Y170D01*
X380Y170D01*
X380Y166D01*
X378Y166D01*
X378Y162D01*
X376Y162D01*
X376Y160D01*
X374Y160D01*
X374Y156D01*
X372Y156D01*
X372Y154D01*
X370Y154D01*
X370Y150D01*
X368Y150D01*
X368Y148D01*
X366Y148D01*
X366Y146D01*
X364Y146D01*
X364Y144D01*
X360Y144D01*
X360Y142D01*
X358Y142D01*
X358Y140D01*
X356Y140D01*
X356Y138D01*
X352Y138D01*
X352Y136D01*
X348Y136D01*
X348Y134D01*
X344Y134D01*
X344Y132D01*
X340Y132D01*
X340Y130D01*
X332Y130D01*
X332Y128D01*
X480Y128D01*
X480Y256D01*
X372Y256D01*
G37*
D02*
G36*
X282Y130D02*
X282Y128D01*
X304Y128D01*
X304Y130D01*
X282Y130D01*
G37*
D02*
G36*
X282Y128D02*
X282Y126D01*
X480Y126D01*
X480Y128D01*
X282Y128D01*
G37*
D02*
G36*
X282Y128D02*
X282Y126D01*
X480Y126D01*
X480Y128D01*
X282Y128D01*
G37*
D02*
G36*
X282Y126D02*
X282Y114D01*
X284Y114D01*
X284Y104D01*
X286Y104D01*
X286Y86D01*
X284Y86D01*
X284Y76D01*
X282Y76D01*
X282Y70D01*
X280Y70D01*
X280Y66D01*
X278Y66D01*
X278Y62D01*
X276Y62D01*
X276Y60D01*
X274Y60D01*
X274Y40D01*
X506Y40D01*
X506Y60D01*
X500Y60D01*
X500Y62D01*
X498Y62D01*
X498Y64D01*
X494Y64D01*
X494Y66D01*
X492Y66D01*
X492Y68D01*
X490Y68D01*
X490Y70D01*
X488Y70D01*
X488Y74D01*
X486Y74D01*
X486Y76D01*
X484Y76D01*
X484Y80D01*
X482Y80D01*
X482Y88D01*
X480Y88D01*
X480Y126D01*
X282Y126D01*
G37*
D02*
G04 End of Copper1*
M02*